<?xml version="1.0" standalone="no"?>
<!DOCTYPE svg PUBLIC "-//W3C//DTD SVG 20010904//EN"
 "http://www.w3.org/TR/2001/REC-SVG-20010904/DTD/svg10.dtd">
<svg version="1.0" xmlns="http://www.w3.org/2000/svg"
 width="300.000000pt" height="300.000000pt" viewBox="0 0 300.000000 300.000000"
 preserveAspectRatio="xMidYMid meet">
<metadata>
Created by potrace 1.14, written by Peter Selinger 2001-2017
</metadata>
<g transform="translate(0.000000,300.000000) scale(0.100000,-0.100000)"
fill="#000000" stroke="none">
<path d="M1514 2527 c-5 -14 -34 -19 -34 -6 0 4 -12 6 -27 4 -16 -2 -31 -4
-35 -4 -5 -1 -8 -6 -8 -12 0 -8 4 -8 14 0 10 8 16 9 21 1 4 -6 3 -10 -2 -9 -4
1 -18 -2 -31 -6 -16 -5 -20 -11 -12 -20 14 -16 -23 -13 -44 4 -14 12 -16 11
-9 -5 6 -17 5 -17 -10 -5 -14 11 -17 11 -18 0 0 -9 -3 -8 -7 3 -6 16 -9 15
-32 -3 l-25 -20 25 11 c22 10 23 10 8 -3 -10 -8 -14 -18 -10 -22 4 -4 -4 -2
-18 5 -22 12 -23 11 -13 -1 10 -12 8 -15 -8 -16 -11 -1 -17 1 -15 5 3 4 -4 8
-14 8 -11 0 -17 -2 -15 -4 6 -6 -19 -30 -26 -26 -4 2 -12 -2 -18 -9 -8 -10 -7
-14 4 -14 8 0 11 5 8 10 -3 6 -1 7 6 3 6 -4 9 -11 7 -15 -8 -13 -57 -6 -67 9
-8 12 -9 11 -7 -5 2 -11 -2 -20 -9 -20 -7 0 -18 -7 -25 -15 -11 -12 -11 -12 4
-2 13 11 18 10 24 0 4 -7 4 -10 -1 -6 -4 4 -13 4 -19 -1 -6 -4 -20 -11 -30
-15 -17 -6 -17 -5 -5 10 13 16 12 16 -11 4 -38 -19 -60 -41 -54 -54 3 -6 -2
-2 -10 8 -16 19 -16 19 -16 -3 0 -20 -1 -21 -16 -7 -21 21 -23 20 -20 -9 2
-13 0 -24 -3 -23 -20 2 -31 -3 -25 -13 4 -7 -2 -7 -17 1 -20 10 -22 10 -11 -1
14 -16 16 -33 2 -24 -5 3 -10 -2 -10 -12 0 -15 -2 -16 -10 -3 -9 13 -10 13
-10 0 0 -9 -3 -11 -8 -5 -4 6 -15 11 -25 11 -14 2 -15 -1 -6 -13 10 -11 10
-14 -2 -11 -8 2 -13 -4 -13 -15 2 -14 -1 -15 -12 -6 -11 9 -14 9 -14 -1 0 -7
-7 -10 -16 -6 -8 3 -13 2 -9 -3 3 -5 -1 -12 -7 -15 -7 -3 -2 -3 12 0 23 6 23
6 7 -10 -9 -10 -21 -15 -26 -11 -5 3 -12 1 -16 -5 -4 -6 -11 -7 -17 -4 -7 4
-8 2 -4 -5 4 -6 13 -9 19 -5 7 3 2 -3 -10 -14 -12 -11 -19 -22 -16 -26 4 -3 1
-6 -4 -6 -6 0 -14 6 -17 13 -4 6 -4 2 -2 -10 3 -15 -1 -23 -11 -23 -8 0 -11 5
-7 12 4 7 3 8 -5 4 -8 -6 -9 -12 -2 -20 8 -9 6 -13 -7 -13 -9 0 -20 5 -24 10
-10 16 -40 -13 -33 -31 4 -12 3 -13 -10 -2 -13 11 -14 10 -9 -4 5 -13 2 -15
-12 -9 -16 6 -17 5 -6 -9 11 -14 10 -16 -5 -14 -17 3 -43 -15 -43 -30 0 -5 5
-3 12 4 7 7 17 12 23 12 13 -1 -25 -23 -44 -26 -7 -2 -19 -8 -25 -15 -8 -9 -8
-10 1 -5 6 3 14 2 17 -3 4 -5 -5 -8 -19 -6 -14 1 -25 -2 -25 -6 0 -5 5 -9 10
-9 6 0 10 -4 10 -9 0 -5 -8 -7 -18 -4 -11 2 -27 -7 -42 -24 l-25 -28 26 23
c36 31 43 28 11 -6 -21 -21 -30 -25 -41 -17 -11 7 -13 7 -7 -3 6 -9 1 -11 -18
-8 -19 3 -26 0 -26 -10 0 -8 -4 -12 -10 -9 -5 3 -10 -1 -10 -10 0 -12 -5 -15
-16 -11 -14 5 -15 4 -5 -8 10 -12 8 -13 -11 -8 -21 5 -22 4 -9 -11 7 -9 10
-18 5 -18 -38 -5 -61 -17 -69 -37 -4 -11 3 -9 22 8 l28 25 -23 -26 c-12 -14
-19 -29 -15 -33 4 -4 -5 -2 -20 3 -16 6 -26 7 -22 2 3 -6 -3 -14 -12 -20 -10
-6 -13 -11 -7 -11 5 0 15 5 21 11 8 8 13 8 18 0 3 -6 3 -11 -2 -10 -17 4 -64
-21 -62 -33 4 -35 -1 -42 -17 -22 -8 10 -13 14 -10 7 4 -6 -1 -18 -9 -26 -11
-12 -12 -16 -2 -20 9 -3 7 -9 -6 -24 -9 -11 -17 -24 -17 -29 0 -5 5 -2 11 6 8
11 9 6 4 -20 -4 -23 -3 -30 3 -22 7 11 10 10 16 -3 4 -10 12 -15 22 -11 8 3
13 2 10 -2 -7 -11 11 -37 26 -37 7 0 13 -7 14 -15 3 -40 4 -41 23 -30 25 13
41 13 21 0 -12 -8 -9 -10 13 -10 15 0 27 -6 27 -12 0 -10 2 -10 9 0 7 11 9 10
14 -3 4 -9 3 -13 -3 -10 -6 3 -10 1 -10 -4 0 -6 6 -11 14 -11 8 0 18 -9 21
-20 3 -11 13 -20 21 -20 10 0 12 -5 8 -12 -5 -9 -2 -8 9 1 15 12 17 12 11 -4
-6 -14 -4 -16 6 -10 10 6 12 4 6 -10 -6 -16 -4 -16 10 -4 16 13 16 12 5 -8
-14 -27 -9 -29 13 -7 12 12 16 12 16 2 0 -10 3 -9 10 2 8 12 10 12 10 -5 0
-17 2 -18 11 -5 9 12 10 11 6 -7 -4 -16 -1 -20 10 -16 12 5 14 1 9 -18 -3 -13
-3 -18 0 -11 3 6 12 12 20 12 9 0 12 -5 9 -10 -3 -6 -1 -10 4 -10 6 0 11 -10
11 -22 0 -13 3 -18 8 -12 5 7 15 3 30 -13 12 -12 17 -23 11 -23 -7 0 -9 -3 -6
-6 4 -4 13 -2 21 5 11 9 15 9 19 -1 3 -7 6 -4 6 7 1 16 3 17 10 5 6 -8 7 -18
5 -22 -8 -12 11 -9 24 4 7 7 12 9 12 6 0 -4 -7 -14 -16 -23 -15 -14 -14 -15
12 -11 25 4 27 3 12 -8 -15 -11 -15 -13 5 -26 24 -15 28 -17 54 -19 15 -1 15
-2 -2 -14 -14 -11 -15 -16 -5 -22 9 -5 11 -4 6 3 -4 7 -1 12 9 12 9 0 13 -4
10 -10 -3 -5 -1 -10 5 -10 6 0 8 -6 4 -12 -4 -7 3 -4 16 7 16 14 24 16 27 7 3
-6 9 -10 13 -7 5 3 11 1 14 -4 4 -5 1 -13 -5 -17 -8 -5 -9 -3 -4 6 5 9 4 11
-4 6 -6 -4 -9 -12 -5 -17 3 -5 9 -7 14 -4 5 3 12 0 15 -6 4 -5 13 -8 21 -5 9
3 11 0 7 -11 -5 -12 -3 -14 8 -8 11 6 12 5 1 -6 -15 -16 -16 -29 -1 -29 5 0 7
5 4 10 -3 6 -1 10 4 10 6 0 11 -4 11 -10 0 -5 5 -10 11 -10 5 0 7 6 3 13 -6
10 -4 10 7 0 7 -7 20 -13 29 -13 9 0 32 -17 51 -37 20 -22 24 -29 9 -18 -15
12 -20 14 -12 4 6 -9 8 -19 4 -23 -4 -4 -2 -7 3 -6 21 5 46 0 42 -7 -3 -5 5
-8 18 -8 13 0 22 2 20 5 -2 3 5 6 16 6 23 0 23 -1 3 -20 -14 -15 -14 -16 1
-16 19 0 47 -25 38 -34 -4 -3 -1 -6 6 -6 7 0 10 -3 8 -7 -3 -5 13 -9 34 -10
29 -2 38 1 33 10 -5 8 -2 7 9 -2 13 -11 15 -17 6 -28 -7 -7 -9 -16 -5 -20 3
-3 6 0 6 7 0 8 8 4 19 -9 16 -18 20 -19 25 -6 3 9 10 13 16 10 5 -3 10 0 10 7
1 8 4 7 10 -4 7 -10 17 -14 32 -10 17 4 20 2 15 -12 -5 -13 -1 -19 13 -23 11
-3 18 -9 15 -13 -3 -5 3 -7 12 -5 10 1 24 -3 32 -9 11 -8 13 -8 8 1 -4 6 -3
14 3 18 5 3 10 0 10 -7 0 -8 3 -9 8 -3 4 6 15 11 25 11 15 2 16 -1 5 -14 -10
-12 -10 -14 -1 -8 7 4 23 0 35 -8 12 -9 18 -16 12 -16 -5 0 -15 5 -22 12 -9 9
-12 8 -12 -7 0 -10 3 -15 6 -12 4 3 15 2 25 -4 11 -5 19 -6 18 -2 -4 22 3 25
17 7 8 -10 13 -13 9 -6 -4 7 0 12 10 12 10 0 14 -5 10 -12 -4 -7 1 -4 9 6 9
11 16 14 16 8 0 -7 5 -12 11 -12 5 0 7 5 4 10 -10 16 2 12 21 -7 17 -17 17
-17 12 5 -5 19 -4 21 8 11 7 -6 11 -15 8 -20 -3 -5 0 -9 5 -9 6 0 11 7 11 15
0 8 5 15 11 15 6 0 8 -7 5 -17 -6 -14 -3 -14 15 3 12 10 19 14 16 8 -4 -7 -1
-14 7 -17 8 -3 13 1 12 11 0 10 5 16 13 14 12 -3 12 0 1 13 -11 13 -10 14 5 9
14 -6 16 -4 10 7 -7 10 -1 9 18 -4 15 -10 26 -13 25 -6 -2 6 5 13 15 14 9 2
17 0 17 -4 0 -4 6 -8 14 -8 9 0 12 6 8 16 -5 14 -4 14 11 2 15 -12 17 -12 11
4 -6 14 -4 16 7 10 11 -7 12 -6 2 6 -10 13 -10 16 2 16 8 0 15 -4 15 -9 0 -5
5 -6 10 -3 6 4 8 10 5 15 -3 4 3 7 12 5 10 -1 17 -8 15 -15 -1 -6 2 -9 7 -5 6
3 7 13 4 22 -5 12 -3 14 7 8 10 -6 12 -4 7 8 -3 9 -1 19 5 23 6 4 8 3 5 -3 -4
-6 -1 -13 7 -16 8 -3 13 1 12 10 0 9 6 18 14 20 13 4 13 3 0 -6 -12 -9 -10
-11 12 -11 15 0 30 5 34 12 5 7 2 8 -7 3 -8 -4 -5 1 6 12 11 12 25 20 30 19 6
0 9 9 9 21 -1 15 3 20 14 15 11 -4 13 -1 7 9 -4 8 -5 11 0 7 4 -4 17 -2 29 4
19 10 20 10 7 -5 -16 -21 -11 -21 24 -3 25 13 25 15 8 25 -16 11 -16 11 5 6
12 -4 21 -3 20 2 -2 4 1 9 6 10 15 2 28 32 20 45 -4 6 -3 8 4 4 6 -3 17 0 25
8 8 8 18 12 22 8 4 -4 4 4 0 18 -7 25 -7 25 10 5 9 -11 13 -14 10 -7 -4 8 -2
12 7 10 7 -2 13 1 13 7 0 5 -7 9 -15 7 -11 -2 -10 1 3 8 9 6 22 8 28 4 8 -5 8
-1 0 13 -9 18 -7 20 17 15 25 -5 26 -4 12 13 -14 17 -13 18 4 12 13 -5 17 -3
13 7 -3 8 1 17 9 20 10 4 12 2 8 -6 -4 -7 -3 -8 5 -4 6 4 10 15 9 24 -2 13 3
16 25 14 17 -2 27 1 27 10 0 10 3 9 10 -2 8 -13 14 -11 35 13 14 15 22 27 17
27 -5 0 -17 -10 -27 -23 -16 -22 -17 -22 -2 3 9 15 24 25 36 24 15 0 18 3 11
11 -12 14 -3 25 15 19 11 -5 29 29 26 49 -1 5 3 6 9 2 5 -3 10 -2 10 4 0 6 7
8 15 5 9 -4 15 0 15 8 0 7 7 24 16 36 13 19 18 21 32 10 14 -12 14 -10 3 10
-6 12 -8 21 -4 20 13 -4 54 22 49 31 -3 5 3 16 13 25 18 17 20 16 30 -1 9 -15
10 -13 5 11 -5 21 -4 27 5 22 6 -4 11 -1 11 8 0 9 5 16 11 16 5 0 7 -5 3 -12
-5 -7 -3 -8 5 -3 7 4 11 15 8 25 -3 13 1 16 18 14 18 -2 22 2 18 20 -4 18 -3
19 7 6 10 -13 11 -11 7 7 -3 15 -1 20 9 16 8 -3 14 0 14 7 0 9 4 9 13 2 9 -8
11 1 8 41 -1 29 -8 58 -13 65 -6 6 -6 12 -1 12 5 0 15 -6 23 -12 12 -11 12
-10 3 2 -6 8 -9 23 -8 32 2 10 -2 15 -10 12 -9 -4 -13 2 -11 19 2 17 -2 24
-13 23 -8 0 -16 4 -16 11 0 7 -6 18 -14 25 -10 10 -12 10 -7 1 13 -23 -6 -14
-35 16 -15 16 -31 26 -35 23 -5 -4 -2 2 6 12 10 13 10 17 3 12 -9 -4 -13 -1
-13 10 0 14 -2 15 -16 3 -15 -12 -16 -11 -9 11 7 21 6 23 -7 13 -19 -16 -32
-5 -16 14 9 11 7 12 -7 7 -12 -5 -16 -4 -11 4 3 6 2 13 -4 17 -6 4 -8 11 -4
16 3 5 0 8 -7 7 -6 -2 -14 3 -17 11 -3 10 0 12 14 8 18 -7 18 -7 0 8 -10 8
-23 12 -27 9 -5 -3 -6 1 -3 9 3 9 -3 16 -15 20 -15 4 -19 10 -14 23 5 14 2 16
-16 11 -19 -5 -20 -3 -9 11 10 12 10 14 1 8 -8 -4 -13 -2 -13 4 0 6 -5 8 -12
4 -9 -5 -8 -2 1 9 12 16 12 17 -5 11 -10 -4 -16 -4 -12 1 4 4 0 14 -8 22 -8 8
-11 19 -8 25 4 7 2 8 -4 4 -9 -5 -9 -13 -1 -29 9 -20 9 -20 -4 -5 -8 10 -17
15 -20 11 -4 -3 -5 4 -2 16 4 21 -26 47 -39 34 -3 -3 -6 -1 -6 6 0 7 -5 9 -12
5 -9 -5 -9 -2 1 9 9 12 10 17 2 17 -7 0 -9 5 -5 11 4 7 -2 6 -17 -2 -21 -11
-23 -11 -11 3 10 13 10 18 1 24 -8 4 -9 3 -5 -4 4 -7 2 -12 -5 -12 -6 0 -9 8
-6 20 3 11 1 18 -3 15 -5 -3 -12 -1 -15 5 -5 8 -12 7 -23 -2 -10 -8 -13 -9 -9
-1 4 6 3 14 -3 18 -5 3 -10 -1 -10 -9 0 -20 -16 -21 -18 -1 -1 8 -3 22 -4 30
-1 8 -4 13 -6 10 -3 -3 -14 3 -25 12 -15 13 -18 14 -12 3 6 -11 5 -12 -4 -4
-7 6 -13 20 -14 32 -1 13 -5 18 -12 13 -13 -9 -35 -8 -35 2 0 4 0 10 0 13 0 4
8 0 18 -7 14 -11 13 -10 -2 9 -11 12 -25 22 -31 22 -14 0 -28 27 -20 40 3 4
-13 6 -35 4 -23 -2 -42 1 -46 8 -5 8 -1 9 12 4 12 -4 7 3 -11 18 -16 14 -38
25 -47 26 -9 0 -20 5 -24 12 -4 6 -3 8 2 5 6 -3 16 -1 24 5 13 8 13 9 0 5 -9
-3 -24 1 -34 8 -12 9 -26 11 -41 5 -27 -10 -39 -2 -23 17 9 11 7 12 -7 7 -12
-5 -16 -4 -12 3 8 12 -20 39 -30 29 -3 -3 -1 -6 5 -6 7 0 12 -4 12 -9 0 -5 -9
-7 -20 -4 -11 3 -20 10 -20 15 0 5 -7 2 -16 -7 -12 -11 -20 -13 -29 -5 -10 8
-15 7 -19 -2 -3 -7 -3 -2 0 11 4 16 3 21 -6 16 -7 -4 -10 -1 -8 11 3 21 -19
26 -41 10 -11 -8 -13 -8 -7 2 4 6 2 12 -3 12 -6 0 -11 -4 -11 -10 0 -5 -7 -7
-15 -4 -8 4 -12 11 -8 17 3 6 1 7 -6 3 -9 -6 -9 -11 1 -24 11 -13 10 -14 -7
-5 -11 6 -26 8 -34 5 -8 -3 -11 0 -7 7 4 6 2 11 -3 11 -6 0 -11 -5 -11 -11 0
-5 -4 -8 -9 -5 -5 4 -12 0 -14 -6 -3 -7 -6 -2 -6 12 -1 19 -3 22 -10 11 -5 -8
-17 -16 -25 -17 -9 -1 -14 2 -11 6 3 5 0 12 -6 16 -8 5 -9 3 -4 -6 6 -10 4
-12 -10 -6 -16 6 -16 4 -4 -10 13 -16 12 -16 -7 -6 -12 6 -25 8 -29 4 -5 -4
-5 1 -2 11 7 20 -1 24 -9 4z m296 -13 c0 -8 -19 -13 -24 -6 -3 5 1 9 9 9 8 0
15 -2 15 -3z m285 -154 c3 -5 1 -10 -4 -10 -6 0 -11 5 -11 10 0 6 2 10 4 10 3
0 8 -4 11 -10z m-1075 -54 c0 -2 -7 -6 -15 -10 -8 -3 -15 -1 -15 4 0 6 7 10
15 10 8 0 15 -2 15 -4z m1299 -139 c0 -9 -2 -8 -6 1 -2 6 -10 9 -15 6 -7 -4
-8 -2 -4 5 9 13 26 5 25 -12z m371 -367 c0 -5 -2 -10 -4 -10 -3 0 -8 5 -11 10
-3 6 -1 10 4 10 6 0 11 -4 11 -10z m-2406 -526 c3 -8 2 -12 -4 -9 -6 3 -10 10
-10 16 0 14 7 11 14 -7z m356 -274 c0 -5 -2 -10 -4 -10 -3 0 -8 5 -11 10 -3 6
-1 10 4 10 6 0 11 -4 11 -10z m697 -416 c-3 -3 -12 -4 -19 -1 -8 3 -5 6 6 6
11 1 17 -2 13 -5z m37 -12 c3 -5 -1 -9 -9 -9 -8 0 -12 4 -9 9 3 4 7 8 9 8 2 0
6 -4 9 -8z"/>
<path d="M2820 1701 c0 -7 -5 -9 -12 -5 -7 5 -8 3 -3 -5 5 -9 10 -10 18 -2 6
6 8 14 4 18 -4 3 -7 1 -7 -6z"/>
<path d="M2741 1286 c-9 -11 -9 -16 1 -22 7 -4 10 -4 6 1 -4 4 -3 14 3 22 6 7
9 13 6 13 -2 0 -10 -6 -16 -14z"/>
<path d="M2655 1200 c-3 -5 -1 -10 4 -10 6 0 11 5 11 10 0 6 -2 10 -4 10 -3 0
-8 -4 -11 -10z"/>
<path d="M2585 1120 c-3 -6 1 -7 9 -4 18 7 21 14 7 14 -6 0 -13 -4 -16 -10z"/>
<path d="M902 809 c10 -5 15 -17 12 -27 -5 -14 -4 -14 4 -2 12 16 -2 40 -22
40 -6 0 -3 -5 6 -11z"/>
</g>
</svg>
